<svg xmlns="http://www.w3.org/2000/svg" shape-rendering="geometricPrecision" text-rendering="geometricPrecision" image-rendering="optimizeQuality" fill="red" clip-rule="evenodd" viewBox="0 0 512 414.537"><path fill="red" d="M272.672 307.707c35.974 29.622 93.074 70.771 124.026 101.724 7.703 4.623 16.376 6.064 24.426 4.496 8.291-1.606 15.868-6.316 21.079-13.928l1.587-2.598 68.209-134.816-23.269-11.733c-6.285 12.42-46.018 93.326-61.794 123.347-8.421-113.201-50.941-202.355-119.111-265.333C232.553 39.322 126.272 2.089.41 0L0 26.017c119.332 1.982 219.658 36.875 290.177 102.028 64.084 59.205 103.813 143.79 111.061 251.776l-112.032-92.217-16.534 20.103z"/></svg>